/* XPM */
static char * max_pressed_xpm[] = {
"32 32 4 1",
" 	c None",
".	c #0f56d9",
"+	c #ffffff",
"@	c #0f56d9",

"@@@@@@@@@@@@@@@@@@@@@@@@@@@@@@@@",
"@@@@@@@@@@@@@@@@@@@@@@@@@@@@@@@@",
"@@@@@@@@@@@@@@@@@@@@@@@@@@@@@@@@",
"................................",
"................................",
"................................",
"................................",
"................................",
"................................",
"................................",
"..........++++++++++++..........",
"..........++++++++++++..........",
"..........++........++..........",
"..........++........++..........",
"..........++........++..........",
"..........++........++..........",
"..........++........++..........",
"..........++........++..........",
"..........++........++..........",
"..........++........++..........",
"..........++++++++++++..........",
"..........++++++++++++..........",
"................................",
"................................",
"................................",
"................................",
"................................",
"................................",
"................................",
"................................",
"................................",
"................................",
