/* XPM */
static char * bullet_xpm[] = {
"16 16 3 1",
" 	c None",
".	c #1d2324",
"+	c #0f56d9",

"++++++++++++++++",
"++++++++++++++++",
"................",
"................",
"................",
"................",
"................",
"................",
"................",
"................",
"................",
"................",
"................",
"................",
"................",
"................",

