/* XPM */
static char * stick_active_xpm[] = {
"32 32 4 1",
" 	c None",
".	c #1D2324",
"+	c #c6c8c8",
"@	c #CACDD0",
"@@@@@@@@@@@@@@@@@@@@@@@@@@@@@@@@",
"@@@@@@@@@@@@@@@@@@@@@@@@@@@@@@@@",
"@@@@@@@@@@@@@@@@@@@@@@@@@@@@@@@@",
"................................",
"................................",
"................................",
"................................",
"................................",
"................................",
"................................",
"................................",
"................................",
"................................",
"...............++...............",
".............++++++.............",
".............++..++.............",
"............++....++............",
"............++....++............",
".............++..++.............",
".............++++++.............",
"...............++...............",
"................................",
"................................",
"................................",
"................................",
"................................",
"................................",
"................................",
"................................",
"................................",
"................................",
"................................",
"................................"};
