/* XPM */
static char * close2_xpm[] = {
"32 32 4 1",
" 	c None",
".	c #1D2324",
"+	c #CACDD0",
"@	c #c6c8c8",

"++++++++++++++++++++++++++++++++",
"++++++++++++++++++++++++++++++++",
"++++++++++++++++++++++++++++++++",
"................................",
"................................",
"................................",
"................................",
"................................",
"................................",
"................................",
"..........@@........@@..........",
"..........@@@......@@@..........",
"...........@@@....@@@...........",
"............@@@..@@@............",
".............@@@@@@.............",
"..............@@@@..............",
"..............@@@@..............",
".............@@@@@@.............",
"............@@@..@@@............",
"...........@@@....@@@...........",
"..........@@@......@@@..........",
"..........@@........@@..........",
"................................",
"................................",
"................................",
"................................",
"................................",
"................................",
"................................",
"................................",
"................................",
"................................",
