/* XPM */
static char * close_unfocus_xpm[] = {
"32 32 4 1",
" 	c None",
".	c #EEEFF0",
"+	c #007EFF",
"@	c #1D2324",

"................................",
"................................",
"................................",
"................................",
"................................",
"................................",
"................................",
"................................",
"........@@............@@........",
"........@@@..........@@@........",
".........@@@........@@@.........",
"..........@@@......@@@..........",
"...........@@@....@@@...........",
"............@@@..@@@............",
".............@@@@@@.............",
"..............@@@@..............",
"..............@@@@..............",
".............@@@@@@.............",
"............@@@..@@@............",
"...........@@@....@@@...........",
"..........@@@......@@@..........",
".........@@@........@@@.........",
"........@@@..........@@@........",
"........@@............@@........",
"................................",
"................................",
"................................",
"................................",
"................................",
"................................",
"................................",
"................................",
